<svg width="20" height="18" viewBox="0 0 20 18" fill="none" xmlns="http://www.w3.org/2000/svg">
<path d="M18.9468 2.35262C18.9457 2.35262 18.9445 2.35247 18.9434 2.35247H13.8965V1.76435C13.8965 0.791507 13.1473 0 12.2266 0H7.77344C6.85266 0 6.10352 0.791507 6.10352 1.76435V2.35247H1.05664C0.746719 2.35247 0.5 2.62079 0.5 2.94058V15.8791C0.5 16.852 1.24915 17.6435 2.16992 17.6435H17.8301C18.7509 17.6435 19.5 16.852 19.5 15.8791V2.95299C19.5 2.95222 19.5 2.95146 19.5 2.95069C19.4787 2.56443 19.2539 2.35476 18.9468 2.35262ZM7.2168 1.76435C7.2168 1.44012 7.46656 1.17623 7.77344 1.17623H12.2266C12.5334 1.17623 12.7832 1.44012 12.7832 1.76435V2.35247H7.2168V1.76435ZM18.171 3.5287L16.4424 9.00768C16.3666 9.24828 16.1544 9.40986 15.9145 9.40986H12.7832V8.82175C12.7832 8.4969 12.534 8.23363 12.2266 8.23363H7.77344C7.46598 8.23363 7.2168 8.4969 7.2168 8.82175V9.40986H4.08555C3.84564 9.40986 3.63342 9.24828 3.55761 9.00768L1.82898 3.5287H18.171ZM11.6699 9.40986V10.5861H8.33008V9.40986H11.6699ZM18.3867 15.8791C18.3867 16.2034 18.137 16.4673 17.8301 16.4673H2.16992C1.86304 16.4673 1.61328 16.2034 1.61328 15.8791V6.5647L2.50144 9.37969C2.72903 10.1014 3.36568 10.5861 4.08555 10.5861H7.2168V11.1742C7.2168 11.4991 7.46598 11.7623 7.77344 11.7623H12.2266C12.534 11.7623 12.7832 11.4991 12.7832 11.1742V10.5861H15.9145C16.6343 10.5861 17.271 10.1014 17.4986 9.37969L18.3867 6.5647V15.8791Z" fill="#015989"/>
</svg>
