<svg width="25" height="25" viewBox="0 0 25 25" fill="none" xmlns="http://www.w3.org/2000/svg">
<path d="M21.875 21.0938H21.0938V12.5C21.0937 12.3439 21.0469 12.1913 20.9594 12.062C20.8719 11.9327 20.7477 11.8326 20.6028 11.7745L12.7903 8.64945C12.5979 8.57246 12.3828 8.57506 12.1922 8.65668C12.0017 8.7383 11.8514 8.89226 11.7745 9.08469C11.6975 9.27711 11.7001 9.49225 11.7817 9.68276C11.8633 9.87327 12.0173 10.0236 12.2097 10.1005L19.5312 13.0291V14.8438H14.0625C13.8553 14.8438 13.6566 14.9261 13.5101 15.0726C13.3636 15.2191 13.2812 15.4178 13.2812 15.625C13.2812 15.8322 13.3636 16.0309 13.5101 16.1774C13.6566 16.3239 13.8553 16.4062 14.0625 16.4062H19.5312V17.9688H14.0625C13.8553 17.9688 13.6566 18.0511 13.5101 18.1976C13.3636 18.3441 13.2812 18.5428 13.2812 18.75C13.2812 18.9572 13.3636 19.1559 13.5101 19.3024C13.6566 19.4489 13.8553 19.5312 14.0625 19.5312H19.5312V21.0938H11.6562L10.1536 3.06016C10.1373 2.86485 10.0483 2.68279 9.90403 2.55009C9.75981 2.41739 9.57098 2.34374 9.375 2.34375H6.25C6.05402 2.34374 5.86519 2.41739 5.72097 2.55009C5.57675 2.68279 5.48767 2.86485 5.47141 3.06016L3.96875 21.0938H3.125C2.9178 21.0938 2.71909 21.1761 2.57257 21.3226C2.42606 21.4691 2.34375 21.6678 2.34375 21.875C2.34375 22.0822 2.42606 22.2809 2.57257 22.4274C2.71909 22.5739 2.9178 22.6562 3.125 22.6562H21.875C22.0822 22.6562 22.2809 22.5739 22.4274 22.4274C22.5739 22.2809 22.6562 22.0822 22.6562 21.875C22.6562 21.6678 22.5739 21.4691 22.4274 21.3226C22.2809 21.1761 22.0822 21.0938 21.875 21.0938ZM8.65625 3.90625L8.91664 7.03125H6.70828L6.96875 3.90625H8.65625ZM6.57812 8.59375H9.04688L10.0884 21.0938H5.53656L6.57812 8.59375Z" fill="#015989"/>
</svg>
