<svg width="19" height="18" viewBox="0 0 19 18" fill="none" xmlns="http://www.w3.org/2000/svg">
<g clip-path="url(#clip0)">
<path d="M9.35786 9.82125L9.35667 9.82018C8.10524 8.69289 3.94012 5.15475 1.44786 3.0436C1.60569 2.91757 1.79834 2.85 2.00003 2.85H17C17.2017 2.85 17.3944 2.91757 17.5522 3.0436C15.0599 5.15479 10.8947 8.69328 9.64224 9.82168L9.64164 9.82222C9.55733 9.89839 9.51208 9.89962 9.50001 9.89962C9.4888 9.89962 9.44333 9.89866 9.35786 9.82125ZM1.2953 3.19798L1.29531 3.19797L1.2953 3.19798Z" stroke="#015989" stroke-width="1.2"/>
<path d="M9.0683 9.91669L9.47924 10.3424L9.91065 9.93745L9.5 9.5L9.91069 9.93742L9.91074 9.93737L9.91087 9.93725L9.91122 9.93692L9.91235 9.93585L9.91627 9.93216L9.93066 9.91854L9.98489 9.86676C10.0321 9.82149 10.1009 9.7549 10.1891 9.66821C10.3654 9.49484 10.6193 9.24097 10.9321 8.91629C12.056 7.74975 15.0696 5.22353 17.5214 3.25195C17.6394 3.33496 17.7889 3.43915 17.9 3.5098V14.2752C17.9 14.9765 17.42 15.4 17 15.4H2.00001C1.58001 15.4 1.1 14.9765 1.1 14.2752V3.57604C1.18819 3.56612 1.29198 3.55756 1.39707 3.55219C1.52295 3.54575 1.63715 3.5446 1.72081 3.54869L1.88882 3.68937C2.06386 3.83604 2.3153 4.04698 2.62071 4.30392C3.23161 4.81786 4.05814 5.5156 4.92107 6.25108C6.66203 7.73491 8.50771 9.33592 9.0683 9.91669ZM2 3L1.61553 3.46041C1.61551 3.46039 1.61549 3.46038 1.61547 3.46036L2 3Z" stroke="#015989" stroke-width="1.2"/>
</g>
<defs>
<clipPath id="clip0">
<rect width="18" height="18" fill="white" transform="translate(0.5)"/>
</clipPath>
</defs>
</svg>
