<svg width="23" height="22" viewBox="0 0 23 22" fill="none" xmlns="http://www.w3.org/2000/svg">
<path d="M21.4172 15.8503C21.3589 15.63 21.255 15.4245 21.1123 15.2468C20.9696 15.0692 20.7913 14.9235 20.5888 14.8191L16.3366 12.6156C15.9934 12.4337 15.5964 12.3812 15.2178 12.4676C14.8391 12.5541 14.5042 12.7737 14.2741 13.0866L13.5866 14.0284C13.5512 14.0774 13.4993 14.1117 13.4404 14.125C13.3815 14.1383 13.3198 14.1296 13.2669 14.1006C12.2558 13.5253 11.3302 12.8114 10.5169 11.9797C9.6852 11.1663 8.97131 10.2407 8.39594 9.22968C8.36692 9.17676 8.35824 9.11505 8.37154 9.05618C8.38483 8.9973 8.41918 8.94532 8.46813 8.91L9.40656 8.2225C9.71937 7.99234 9.93904 7.65741 10.0255 7.2788C10.1119 6.90019 10.0594 6.50311 9.8775 6.16L7.68781 1.91125C7.58266 1.70846 7.43595 1.5301 7.25725 1.3878C7.07855 1.2455 6.87188 1.14246 6.65069 1.08538C6.4295 1.0283 6.19877 1.01846 5.97353 1.05652C5.74829 1.09458 5.5336 1.17967 5.34344 1.30625L2.6725 3.09375C2.29746 3.34347 1.99462 3.68735 1.79432 4.09096C1.59403 4.49457 1.50331 4.94373 1.53125 5.39343C1.5666 6.15378 1.66898 6.90952 1.83719 7.65187C2.5625 10.45 4.31219 13.3272 6.7425 15.7609C9.17281 18.1947 12.0534 19.9375 14.8516 20.6559C15.5939 20.8241 16.3497 20.9265 17.11 20.9619H17.2819C17.7014 20.961 18.1143 20.8574 18.4846 20.6603C18.8548 20.4632 19.1713 20.1784 19.4063 19.8309L21.1869 17.16C21.3154 16.9703 21.4024 16.7555 21.442 16.5298C21.4817 16.3041 21.4733 16.0725 21.4172 15.8503ZM20.0422 16.3934L18.2719 19.0678C18.1544 19.2413 17.9936 19.381 17.8055 19.4733C17.6174 19.5655 17.4085 19.607 17.1994 19.5937C16.5251 19.5626 15.8546 19.474 15.1953 19.3291C12.6309 18.6622 9.97719 17.05 7.71875 14.7812C5.46031 12.5125 3.84125 9.86906 3.17438 7.30468C3.02818 6.6455 2.93848 5.97505 2.90625 5.30062C2.89252 5.09196 2.93388 4.88336 3.02618 4.69572C3.11849 4.50809 3.25851 4.34802 3.43219 4.23156L6.10313 2.45093C6.14379 2.42371 6.19169 2.40934 6.24063 2.40968H6.30594C6.33979 2.41851 6.37138 2.4344 6.39864 2.45633C6.42589 2.47825 6.44819 2.5057 6.46406 2.53687L8.66406 6.78906C8.69141 6.84179 8.69916 6.90251 8.68594 6.96041C8.67272 7.01832 8.63939 7.06966 8.59188 7.10531L7.65344 7.79281C7.33522 8.02956 7.11474 8.37467 7.03366 8.76292C6.95259 9.15118 7.01655 9.55569 7.21344 9.89999C7.84968 11.0121 8.63626 12.0312 9.55094 12.9284C10.4481 13.8432 11.4672 14.6298 12.5794 15.2659C12.9237 15.4628 13.3282 15.5268 13.7164 15.4457C14.1047 15.3646 14.4498 15.1442 14.6866 14.8259L15.3741 13.8841C15.4097 13.8365 15.4611 13.8032 15.519 13.79C15.5769 13.7768 15.6376 13.7845 15.6903 13.8119L19.9425 16.0119C19.9736 16.0282 20.001 16.0508 20.0228 16.0783C20.0446 16.1059 20.0604 16.1377 20.0692 16.1717C20.0779 16.2057 20.0794 16.2412 20.0736 16.2758C20.0678 16.3105 20.0547 16.3435 20.0353 16.3728L20.0422 16.3934Z" fill="#015989"/>
</svg>
