<svg width="20" height="21" viewBox="0 0 20 21" fill="none" xmlns="http://www.w3.org/2000/svg">
<path d="M2.72217 4.16382L2.70791 4.18554C1.50317 5.57497 0.720569 7.2799 0.452766 9.09959C0.182989 10.9327 0.447043 12.8047 1.21336 14.4918C1.97967 16.1788 3.21582 17.6096 4.77401 18.613C6.33219 19.6164 8.14649 20.15 10 20.15C11.8535 20.15 13.6678 19.6164 15.226 18.613C16.7842 17.6096 18.0203 16.1788 18.7866 14.4918C19.553 12.8047 19.817 10.9327 19.5472 9.09959C19.2775 7.26648 18.4853 5.54983 17.2654 4.15485L17.2459 4.13262L17.2432 4.13124C17.2245 4.10795 17.2035 4.08657 17.1805 4.06744C16.2784 3.05696 15.1731 2.24806 13.9369 1.69363C12.6969 1.13751 11.3532 0.85 9.99406 0.85C8.63497 0.85 7.29127 1.13751 6.05125 1.69363C4.81482 2.24814 3.70939 3.0572 2.80718 4.0679C2.7744 4.09561 2.74577 4.12791 2.72217 4.16382ZM15.5826 10.9457H18.7388C18.6469 12.7876 17.9724 14.5531 16.8122 15.9876C16.204 15.6422 15.5635 15.3569 14.9 15.1357C15.3222 13.7778 15.552 12.3674 15.5826 10.9457ZM12.8866 18.7603C13.5674 18.048 14.1551 17.1 14.6041 15.9794C15.1556 16.1626 15.69 16.3935 16.2014 16.6694C15.2674 17.6092 14.1335 18.3233 12.8866 18.7603ZM3.1812 15.9886C2.02051 14.554 1.34569 12.788 1.25374 10.9457H4.41C4.44043 12.3679 4.67019 13.7788 5.09256 15.1372C4.42933 15.3583 3.78918 15.6434 3.1812 15.9886ZM1.25382 10.0522C1.34726 8.19956 2.0301 6.42468 3.20317 4.98665C3.80771 5.32846 4.44381 5.61117 5.10262 5.83088C4.67384 7.19831 4.44066 8.61948 4.41 10.0522H1.25382ZM10.4432 6.58644C11.6617 6.55777 12.8729 6.38813 14.0524 6.08091C14.4496 7.36853 14.6658 8.70509 14.6948 10.0522H10.4432V6.58644ZM10.4432 5.69267V1.78715C11.7609 2.02307 12.9488 3.2988 13.7422 5.23746C12.663 5.51186 11.5564 5.66456 10.4432 5.69267ZM9.54941 1.78715V5.69267C8.43615 5.66457 7.32956 5.51188 6.25035 5.23746C7.04382 3.2988 8.23172 2.02307 9.54941 1.78715ZM5.9404 6.08095C7.11986 6.38813 8.33093 6.55775 9.54941 6.58644V10.0522H5.30356C5.33077 8.70536 5.5451 7.36883 5.9404 6.08095ZM5.94039 14.8872C5.54822 13.6088 5.33405 12.2825 5.30391 10.9457H9.54941V14.3789C8.33082 14.4085 7.11973 14.579 5.94039 14.8872ZM9.54941 15.2726V19.2107C8.22519 18.9729 7.02634 17.6854 6.2376 15.7309C7.32083 15.4544 8.43176 15.3007 9.54941 15.2726ZM10.4432 15.2726C11.5608 15.3007 12.6717 15.4544 13.755 15.7309C12.9662 17.6854 11.7674 18.9729 10.4432 19.2107V15.2726ZM14.0522 14.8857C12.8728 14.578 11.6617 14.408 10.4432 14.3789V10.9457H14.6887C14.6584 12.282 14.4442 13.6078 14.0522 14.8857ZM18.7388 10.0522H15.5826C15.5519 8.61948 15.3187 7.1983 14.89 5.83088C15.5488 5.61117 16.1849 5.32846 16.7894 4.98665C17.9625 6.42468 18.6453 8.19956 18.7388 10.0522ZM14.589 4.9891C14.1425 3.88279 13.5623 2.94341 12.8852 2.23755C14.1219 2.67158 15.2473 3.37836 16.1766 4.3076C15.668 4.57989 15.1368 4.8079 14.589 4.9891ZM5.405 4.98908C4.85718 4.80788 4.32602 4.57988 3.81741 4.30759C4.74574 3.37925 5.8697 2.67287 7.10479 2.23862C6.42899 2.94278 5.85068 3.88327 5.405 4.98908ZM5.3914 15.9794C5.83909 17.0977 6.42172 18.0491 7.10335 18.7594C5.85851 18.322 4.72663 17.6081 3.7941 16.6694C4.30546 16.3935 4.83991 16.1626 5.3914 15.9794Z" fill="#015989" stroke="#015989" stroke-width="0.3"/>
</svg>
